# xmcd
#
# Track frame offsets: 
#        150
#        19590
#        41109
#        60633
#        77793
#        92028
#        108210
#        124529
#        147024
#        159404
#        174839
#        195509
#        209862
#
# Disc length: 3107 seconds
#
# Revision: 1
# Processed by: cddbd v1.5.2PL0 Copyright (c) Steve Scherf et al.
# Submitted via: ExactAudioCopyFreeDBPlugin 1.0
#
DISCID=a60c210d
DTITLE=群星 - 民歌风暴之高原情
DYEAR=2011
DGENRE=Acid
TTITLE0=你不会回来
TTITLE1=老槐树
TTITLE2=香格里拉
TTITLE3=新疆好
TTITLE4=走出大山
TTITLE5=献给阿妈的歌
TTITLE6=阿瓦日古丽
TTITLE7=穿行
TTITLE8=哈洛提
TTITLE9=草原之夜
TTITLE10=九寨情缘
TTITLE11=慈祥的母亲
TTITLE12=向往神鹰
EXTD=
EXTT0=
EXTT1=
EXTT2=
EXTT3=
EXTT4=
EXTT5=
EXTT6=
EXTT7=
EXTT8=
EXTT9=
EXTT10=
EXTT11=
EXTT12=
PLAYORDER=
